<svg t="1771090902431" class="icon" viewBox="0 0 1024 1024" version="1.1" xmlns="http://www.w3.org/2000/svg" p-id="4789" width="20" height="20"><path d="M510.354462 328.741921c8.703068 0 15.303503-3.291076 23.988287-11.153091l137.713245-128.187409c7.020962-6.216477 10.750848-13.657965 10.750848-23.165518 0-16.949041-12.816912-29.363711-30.18648-29.363711-8.264257 0-16.126272 3.729886-22.744992 9.928079l-53.75424 53.754241-35.561904 37.225726 2.888833-69.47827V31.850302C543.448059 14.480734 528.144556 0 510.354462 0c-17.77181 0-32.654787 14.480734-32.654787 31.850302v136.451666l2.486591 69.47827-35.580188-37.225726-53.754241-53.754241c-6.198193-6.216477-14.46245-9.928079-22.744991-9.928079-17.77181 0-30.168196 12.41467-30.168197 29.363711 0 9.507553 3.711602 16.949041 11.153091 23.165518l137.292719 128.187409c8.684784 7.862015 15.72403 11.153091 23.988287 11.153091zM162.195193 643.460201h696.373389c69.057744 0 117.016034-46.733279 117.016034-110.397315v-42.198907c0-63.68232-47.95829-110.397315-117.016034-110.397315H162.17691c-68.637217 0-117.016034 46.714995-117.016034 110.397315v42.198907c0 63.664036 48.378817 110.397315 117.016034 110.397315z m8.684784-62.439025c-37.225726 0-59.970717-24.811056-59.970717-58.306895v-21.501697c0-33.49584 22.744992-58.325179 59.970717-58.325179h679.003821c37.225726 0 59.970717 24.82934 59.970718 58.325179v21.501697c0 33.49584-22.744992 58.325179-59.970718 58.325179zM510.372746 1023.890297c17.77181 0 33.075313-14.480734 33.075313-31.850301v-136.451666l-2.888833-69.47827 35.561904 37.225725 53.75424 53.754241c6.618719 6.216477 14.480734 9.928079 22.744992 9.928079 17.369568 0 30.18648-11.994143 30.18648-29.363711 0-9.507553-3.729886-16.546799-10.750848-23.165518l-137.713245-128.187408c-8.684784-7.862015-15.285219-10.750848-23.970003-10.750848-8.282541 0-15.303503 2.888833-23.988287 10.750848l-137.311003 128.187408c-7.423205 6.618719-11.153091 13.657965-11.15309 23.165518 0 17.369568 12.41467 29.363711 30.18648 29.363711 8.282541 0 16.546799-3.729886 22.744991-9.928079l53.754241-53.754241 35.580188-37.225725-2.486591 69.47827v136.451666c0 17.369568 14.882977 31.850302 32.673071 31.850301z" p-id="4790" fill="#ffffff"></path></svg>